<svg width="113" height="102" viewBox="0 0 113 102" fill="none" xmlns="http://www.w3.org/2000/svg">
<rect x="0.5" y="0.5" width="112" height="101" fill="#EAEAEA" stroke="#C4C4C4"/>
<path d="M0.949219 0.857422L31.3358 28.286" stroke="#C4C4C4"/>
<path d="M81.6641 73.7139L112.051 101.142" stroke="#C4C4C4"/>
<path d="M81.6641 28.2861L112.051 0.857562" stroke="#C4C4C4"/>
<path d="M0.949219 101.143L31.3358 73.714" stroke="#C4C4C4"/>
<path d="M41 43.6C41 41.6118 42.6926 40 44.7805 40C46.8684 40 48.561 41.6118 48.561 43.6C48.561 45.5882 46.8684 47.2 44.7805 47.2C42.6926 47.2 41 45.5882 41 43.6Z" fill="#959595"/>
<path d="M72 58H41.7561V53.68L45.4907 50.1236C45.9336 49.7019 46.6517 49.7019 47.0946 50.1236L50.8293 53.68L62.1248 42.9237C62.5678 42.5019 63.2859 42.5019 63.7288 42.9237L72 50.8V58Z" fill="#959595"/>
</svg>
