<svg width="48" height="48" viewBox="0 0 48 48" fill="none" xmlns="http://www.w3.org/2000/svg">
<g clip-path="url(#clip0_214_13588)">
<path d="M31.4 26.9C32.2 28.4 33 29 33 29H15C15 29 18 27 18 20C18 16.7 20.7 14 24 14C24.7 14 25.3 14.1 25.9 14.3" stroke="black" stroke-width="2" stroke-linecap="round" stroke-linejoin="round"/>
<path d="M22.3008 33C22.4682 33.3044 22.7142 33.5583 23.0133 33.7352C23.3123 33.912 23.6534 34.0053 24.0008 34.0053C24.3482 34.0053 24.6892 33.912 24.9883 33.7352C25.2873 33.5583 25.5334 33.3044 25.7008 33" stroke="black" stroke-width="2" stroke-linecap="round" stroke-linejoin="round"/>
<path d="M30 23C31.6569 23 33 21.6569 33 20C33 18.3431 31.6569 17 30 17C28.3431 17 27 18.3431 27 20C27 21.6569 28.3431 23 30 23Z" stroke="black" stroke-width="2" stroke-linecap="round" stroke-linejoin="round"/>
</g>
<defs>
<clipPath id="clip0_214_13588">
<rect width="48" height="48" fill="white"/>
</clipPath>
</defs>
</svg>
