<svg width="20" height="14" viewBox="0 0 20 14" fill="none" xmlns="http://www.w3.org/2000/svg">
<path d="M10 0C5.45455 0 1.57273 2.76444 0 6.66667C1.57273 10.5689 5.45455 13.3333 10 13.3333C14.5455 13.3333 18.4273 10.5689 20 6.66667C18.4273 2.76444 14.5455 0 10 0ZM10 11.1111C7.49091 11.1111 5.45455 9.12 5.45455 6.66667C5.45455 4.21333 7.49091 2.22222 10 2.22222C12.5091 2.22222 14.5455 4.21333 14.5455 6.66667C14.5455 9.12 12.5091 11.1111 10 11.1111ZM10 4C8.49091 4 7.27273 5.19111 7.27273 6.66667C7.27273 8.14222 8.49091 9.33333 10 9.33333C11.5091 9.33333 12.7273 8.14222 12.7273 6.66667C12.7273 5.19111 11.5091 4 10 4Z" fill="#B3B3B3"/>
</svg>
