<svg width="53" height="54" viewBox="0 0 53 54" fill="none" xmlns="http://www.w3.org/2000/svg">
<path d="M26.5004 53.5722C41.1361 53.5722 53.0008 41.5797 53.0008 26.7861C53.0008 11.9925 41.1361 0 26.5004 0C11.8646 0 0 11.9925 0 26.7861C0 41.5797 11.8646 53.5722 26.5004 53.5722Z" fill="#B3B3B3"/>
<path d="M38.7567 41.1836C38.7567 37.9868 37.5003 34.9209 35.2639 32.6604C33.0275 30.3998 29.9942 29.1299 26.8315 29.1299C23.6687 29.1299 20.6355 30.3998 18.3991 32.6604C16.1627 34.9209 14.9063 37.9868 14.9063 41.1836" fill="#404040"/>
<path d="M26.8312 29.1299C31.2219 29.1299 34.7813 25.5321 34.7813 21.0941C34.7813 16.656 31.2219 13.0582 26.8312 13.0582C22.4405 13.0582 18.8811 16.656 18.8811 21.0941C18.8811 25.5321 22.4405 29.1299 26.8312 29.1299Z" fill="#404040"/>
</svg>
