<svg width="37" height="37" viewBox="0 0 37 37" fill="none" xmlns="http://www.w3.org/2000/svg">
<path d="M18.4271 26.4026L18.3152 26.5135L18.1921 26.4026C12.8756 21.6228 9.36109 18.4621 9.36109 15.2571C9.36109 13.0391 11.04 11.3756 13.2785 11.3756C15.0022 11.3756 16.6811 12.4846 17.2743 13.9928H19.3561C19.9493 12.4846 21.6282 11.3756 23.3519 11.3756C25.5904 11.3756 27.2693 13.0391 27.2693 15.2571C27.2693 18.4621 23.7548 21.6228 18.4271 26.4026ZM23.3519 9.15759C21.4043 9.15759 19.5352 10.0559 18.3152 11.4643C17.0952 10.0559 15.226 9.15759 13.2785 9.15759C9.83118 9.15759 7.12257 11.8303 7.12257 15.2571C7.12257 19.438 10.9281 22.8649 16.6923 28.0439L18.3152 29.5078L19.9381 28.0439C25.7023 22.8649 29.5078 19.438 29.5078 15.2571C29.5078 11.8303 26.7992 9.15759 23.3519 9.15759Z" fill="#C4C4C4"/>
</svg>
