<svg width="23" height="26" viewBox="0 0 23 26" fill="none" xmlns="http://www.w3.org/2000/svg">
<path d="M16.4409 6.21387C14.1162 6.21387 13.1337 7.32319 11.5147 7.32319C9.85473 7.32319 8.58857 6.22194 6.57403 6.22194C4.60215 6.22194 2.49938 7.42582 1.16404 9.4767C-0.710978 12.3688 -0.392709 17.8157 2.6441 22.4559C3.73037 24.117 5.18102 25.98 7.08372 26.0001H7.11831C8.77192 26.0001 9.26316 24.9173 11.5389 24.9046H11.5735C13.8152 24.9046 14.2649 25.9938 15.9116 25.9938H15.9462C17.8489 25.9736 19.3774 23.9095 20.4637 22.2547C21.2455 21.0647 21.5361 20.4673 22.1357 19.121C17.7428 17.4536 17.0371 11.226 21.3816 8.83843C20.0555 7.1779 18.192 6.21617 16.4352 6.21617L16.4409 6.21387Z" fill="#F5F5F5"/>
<path d="M15.9289 0C14.5451 0.0939815 12.9307 0.974986 11.9851 2.12525C11.1272 3.16769 10.4215 4.71406 10.6982 6.21373H10.8089C12.2827 6.21373 13.791 5.32638 14.672 4.18938C15.5207 3.10715 16.1641 1.57347 15.9289 0Z" fill="#F5F5F5"/>
</svg>
