<svg width="24" height="24" viewBox="0 0 24 24" fill="none" xmlns="http://www.w3.org/2000/svg">
<path d="M13 8C13 5.24 10.54 3 7.5 3C4.46 3 2 5.24 2 8H4L5 7L6 8H10" stroke="#B3B3B3" stroke-width="2" stroke-linecap="round" stroke-linejoin="round"/>
<path d="M13 7.14014C14.0126 6.39149 15.2407 5.99147 16.5 6.00014C19.54 6.00014 22 8.24014 22 11.0001H19L18 10.0001L17 11.0001H14" stroke="#B3B3B3" stroke-width="2" stroke-linecap="round" stroke-linejoin="round"/>
<path d="M5.89009 9.71046C3.74009 11.8605 3.59009 15.1805 5.54009 17.1405L9.78009 12.8905L10.4801 12.1905L11.1901 11.4805L13.3101 9.36046C11.3601 7.40046 8.04009 7.56046 5.89009 9.71046Z" stroke="#B3B3B3" stroke-width="2" stroke-linecap="round" stroke-linejoin="round"/>
<path d="M11 15.5C11.5 18 10.83 20 10 22H14C16 16.5 13.5 10 13 8" stroke="#B3B3B3" stroke-width="2" stroke-linecap="round" stroke-linejoin="round"/>
</svg>
