<svg width="20" height="20" viewBox="0 0 20 20" fill="none" xmlns="http://www.w3.org/2000/svg">
<path d="M16.6663 8.33317C16.6663 13.3332 9.99967 18.3332 9.99967 18.3332C9.99967 18.3332 3.33301 13.3332 3.33301 8.33317C3.33301 6.56506 4.03539 4.86937 5.28563 3.61913C6.53587 2.36888 8.23156 1.6665 9.99967 1.6665C11.7678 1.6665 13.4635 2.36888 14.7137 3.61913C15.964 4.86937 16.6663 6.56506 16.6663 8.33317Z" stroke="white" stroke-width="1.5" stroke-linecap="round" stroke-linejoin="round"/>
<path d="M10 10.8335C11.3807 10.8335 12.5 9.71421 12.5 8.3335C12.5 6.95278 11.3807 5.8335 10 5.8335C8.61929 5.8335 7.5 6.95278 7.5 8.3335C7.5 9.71421 8.61929 10.8335 10 10.8335Z" stroke="white" stroke-width="1.5" stroke-linecap="round" stroke-linejoin="round"/>
</svg>
