<svg width="152" height="20" viewBox="0 0 152 20" fill="none" xmlns="http://www.w3.org/2000/svg">
<g clip-path="url(#clip0_6380_269074)">
<path d="M18.7969 1.79125C19.0156 1.8216 19.1768 2.00956 19.1768 2.23299V4.40661C19.1768 4.69309 18.9141 4.9051 18.638 4.84244L18.3686 4.78136C16.295 4.31125 14.1625 4.39795 12.1159 4.59497C11.889 4.61665 11.7165 4.81052 11.7165 5.04026V18.1797C11.7165 18.4256 11.5185 18.6254 11.2745 18.6254H9.1033C8.85967 18.6254 8.66133 18.4256 8.66133 18.1797V5.49737C8.66133 5.22034 8.41457 5.01662 8.14401 5.05839C5.3083 5.49658 2.50657 4.96499 1.54806 4.74826C1.34581 4.70216 1.20135 4.52168 1.20135 4.31204V2.10414C1.20135 1.81844 1.46412 1.60605 1.74015 1.6687L2.00955 1.72978C4.67698 2.33466 7.34518 2.22196 10.1149 1.71835C13.3961 1.12096 17.5374 1.61472 18.7961 1.79086" fill="white"/>
<path d="M29.2906 10.1512C29.2906 13.1251 32.5151 15.5439 36.4784 15.5439C40.0891 15.5439 41.8691 13.8155 42.3286 13.2875C42.413 13.1902 42.532 13.1362 42.6597 13.1362H45.3513C45.7035 13.1362 45.914 13.531 45.7207 13.8281L45.4946 14.1737C43.7014 16.9215 40.2465 18.6282 36.4784 18.6282C30.83 18.6282 26.235 14.8251 26.235 10.1512C26.235 5.47727 30.83 1.67383 36.4784 1.67383C40.2465 1.67383 43.7018 3.38089 45.4946 6.12826L45.7207 6.47424C45.914 6.77057 45.7035 7.1662 45.3513 7.1662H42.6933C42.5523 7.1662 42.4169 7.10158 42.3321 6.9873C41.9198 6.4301 40.3597 4.75733 36.4788 4.75733C32.5979 4.75733 29.291 7.17763 29.291 10.1516" fill="white"/>
<path d="M65.1052 17.4415L65.5312 17.8304C65.8322 18.1047 65.6401 18.6079 65.2356 18.6079H61.9552C61.8209 18.6079 61.694 18.5468 61.6101 18.4404C61.2122 17.9357 60.0179 16.415 59.4588 15.63L59.4275 15.5859C57.972 13.5435 56.7656 12.0283 54.8837 11.5354C54.7541 11.5011 54.6139 11.5354 54.5069 11.6173C54.0493 11.9673 53.5863 12.2671 53.1026 12.5272C52.1491 13.0411 51.1008 13.4698 50.0318 13.7847C49.8421 13.8402 49.712 14.0116 49.712 14.2102V18.1615C49.712 18.4077 49.5141 18.6079 49.2701 18.6079H47.0989C46.8553 18.6079 46.6569 18.4081 46.6569 18.1615V2.091C46.6569 1.84432 46.8549 1.64453 47.0989 1.64453H49.2701C49.5137 1.64453 49.712 1.84432 49.712 2.091V9.85472C49.712 10.1719 50.031 10.3863 50.3227 10.2689C50.7596 10.0931 51.1848 9.89413 51.5943 9.67385C53.4867 8.656 54.8732 6.70935 56.2147 4.82733L56.2475 4.78123C56.7812 4.03252 58.2461 2.31719 58.6927 1.79664C58.7767 1.69931 58.8973 1.64453 59.0254 1.64453H63.2768C63.7496 1.64453 63.8925 2.29276 63.4638 2.49491L62.5623 2.92049C61.113 3.60379 60.0237 5.02239 58.8501 6.66955L58.8192 6.7129C58.3628 7.35246 57.931 7.953 57.4883 8.52596C57.3235 8.73954 57.377 9.05281 57.6105 9.18482C59.6243 10.3221 60.9381 12.1655 62.0302 13.6984L62.0606 13.7413C62.9414 14.9787 63.9405 16.3799 65.1052 17.4423" fill="white"/>
<path d="M64.5 18.18V2.08514C64.5 1.83846 64.698 1.63867 64.942 1.63867L79.3766 1.63946C79.6203 1.63946 79.8182 1.83925 79.8182 2.08553V4.27807C79.8182 4.52396 79.6203 4.72414 79.3766 4.72414H67.9971C67.7527 4.72414 67.5548 4.92432 67.5548 5.17061V8.81801C67.5548 9.06823 67.7574 9.27511 68.0041 9.26723C68.8701 9.24083 69.7494 9.12182 70.5927 8.92598C73.656 8.2151 75.6289 8.7325 76.3379 8.98824C76.5148 9.05208 76.6327 9.21837 76.6331 9.40831L76.6385 11.6458C76.6393 11.9539 76.3375 12.1699 76.049 12.067L75.7538 11.9622C75.1444 11.7447 74.4892 11.6391 73.7513 11.6391H73.747C72.7936 11.6391 71.839 11.8089 70.8281 11.989C69.9419 12.1466 68.9716 12.3113 67.9877 12.3484C67.7476 12.3574 67.5548 12.5505 67.5548 12.7937V15.0922C67.5548 15.3381 67.7527 15.5379 67.9971 15.5379H79.3766C79.6203 15.5379 79.8186 15.7377 79.8186 15.9843V18.1773C79.8186 18.4232 79.6207 18.6229 79.3766 18.6229L64.942 18.6265C64.698 18.6265 64.4996 18.4267 64.4996 18.1804" fill="white"/>
<path d="M98.2778 1.79125C98.4965 1.8216 98.6577 2.00956 98.6577 2.23299V4.40661C98.6577 4.69309 98.395 4.9051 98.1189 4.84244L97.8495 4.78136C95.7759 4.31125 93.6434 4.39795 91.5968 4.59497C91.3699 4.61665 91.1974 4.81052 91.1974 5.04026V18.1797C91.1974 18.4256 90.9994 18.6254 90.7554 18.6254H88.5842C88.3406 18.6254 88.1426 18.4256 88.1426 18.1797V5.49737C88.1426 5.22034 87.8959 5.01662 87.6253 5.05839C84.7896 5.49658 81.9879 4.96499 81.0293 4.74826C80.8271 4.70216 80.6826 4.52168 80.6826 4.31204V2.10414C80.6826 1.81844 80.9454 1.60605 81.2214 1.6687L81.4908 1.72978C84.1583 2.33466 86.8265 2.22196 89.5962 1.71835C92.8774 1.12096 97.0187 1.61472 98.2774 1.79086" fill="white"/>
<path d="M112.026 4.72769H103.019C102.774 4.72769 102.576 4.92748 102.576 5.17416V8.05984C102.576 8.30613 102.774 8.50631 103.019 8.50631H112.026C113.142 8.50631 114.05 7.65908 114.05 6.61759C114.05 5.5761 113.142 4.72808 112.026 4.72808M119.577 17.4648L119.961 17.847C120.243 18.1268 120.046 18.6107 119.651 18.6107H116.676C116.539 18.6107 116.412 18.5485 116.328 18.4397C115.944 17.9408 114.824 16.4836 114.393 15.8791L114.362 15.8366C112.611 13.3788 111.275 11.7561 108.751 11.5894L103.02 11.591C102.775 11.591 102.577 11.7908 102.577 12.0371V18.1643C102.577 18.4102 102.379 18.6103 102.135 18.6103H99.9641C99.7205 18.6103 99.5221 18.4106 99.5221 18.1643V2.08514C99.5221 1.83885 99.7201 1.63867 99.9641 1.63867L112.027 1.64222C114.828 1.64222 117.108 3.87377 117.108 6.61601C117.108 8.3077 116.237 9.83546 114.864 10.7386C114.629 10.8935 114.594 11.2198 114.788 11.4259C115.602 12.2908 116.27 13.2279 116.843 14.0326L116.876 14.0791C117.713 15.2545 118.581 16.4718 119.577 17.464" fill="white"/>
<path d="M119.626 18.18V2.08514C119.626 1.83846 119.824 1.63867 120.068 1.63867L134.503 1.63946C134.746 1.63946 134.944 1.83925 134.944 2.08553V4.27807C134.944 4.52396 134.746 4.72414 134.503 4.72414H123.123C122.879 4.72414 122.681 4.92432 122.681 5.17061V8.81801C122.681 9.06823 122.884 9.27511 123.13 9.26723C123.996 9.24083 124.876 9.12182 125.719 8.92598C128.782 8.2151 130.755 8.7325 131.464 8.98824C131.641 9.05208 131.759 9.21837 131.759 9.40831L131.765 11.6458C131.766 11.9539 131.464 12.1699 131.175 12.067L130.88 11.9622C130.271 11.7447 129.615 11.6391 128.878 11.6391H128.874C127.92 11.6391 126.966 11.8089 125.955 11.989C125.068 12.1466 124.098 12.3113 123.114 12.3484C122.874 12.3574 122.681 12.5505 122.681 12.7937V15.0922C122.681 15.3381 122.879 15.5379 123.124 15.5379H134.503C134.747 15.5379 134.945 15.7377 134.945 15.9843V18.1773C134.945 18.4232 134.747 18.6229 134.503 18.6229L120.069 18.6265C119.825 18.6265 119.626 18.4267 119.626 18.1804" fill="white"/>
<path d="M135.809 18.18V2.08514C135.809 1.83846 136.007 1.63867 136.251 1.63867L150.685 1.63946C150.929 1.63946 151.127 1.83925 151.127 2.08553V4.27807C151.127 4.52396 150.929 4.72414 150.685 4.72414H139.306C139.061 4.72414 138.864 4.92432 138.864 5.17061V8.81801C138.864 9.06823 139.066 9.27511 139.313 9.26723C140.179 9.24083 141.058 9.12182 141.901 8.92598C144.965 8.2151 146.938 8.7325 147.647 8.98824C147.824 9.05208 147.941 9.21837 147.942 9.40831L147.947 11.6458C147.948 11.9539 147.647 12.1699 147.358 12.067L147.063 11.9622C146.453 11.7447 145.798 11.6391 145.06 11.6391H145.056C144.103 11.6391 143.148 11.8089 142.137 11.989C141.251 12.1466 140.281 12.3113 139.297 12.3484C139.057 12.3574 138.864 12.5505 138.864 12.7937V15.0922C138.864 15.3381 139.062 15.5379 139.306 15.5379H150.686C150.929 15.5379 151.128 15.7377 151.128 15.9843V18.1773C151.128 18.4232 150.93 18.6229 150.686 18.6229L136.251 18.6265C136.007 18.6265 135.809 18.4267 135.809 18.1804" fill="white"/>
<path d="M25.6209 2.99339L15.9479 17.7351L15.6282 17.5215L16.3177 16.4709C16.3091 16.3819 16.3009 16.281 16.2931 16.173C16.1506 14.36 16.0748 10.3898 17.943 8.77067L19.3115 10.2011L18.2827 8.47433C19.2416 7.56406 19.8706 6.41381 20.6437 5.40305L21.7431 6.55449L20.8787 5.10396C21.8759 3.88987 23.1697 2.95398 25.6205 2.99339H25.6209Z" fill="#03BDBF"/>
<path d="M25.6209 2.99258L15.9479 17.7343L16.2677 17.9479L16.9572 16.8973C17.0415 16.8705 17.1372 16.839 17.2387 16.8039C18.9484 16.229 22.5993 14.7501 23.3474 12.3818L21.5085 11.6682L23.4852 11.9499C23.9412 10.7035 24.7451 9.67028 25.3655 8.55746L23.8858 7.9849L25.5463 8.22212C26.2647 6.82203 26.6133 5.25408 25.6213 2.99219L25.6209 2.99258Z" fill="#045454"/>
<path d="M16.0975 17.834L15.8039 17.6377L25.6209 2.99219L16.0975 17.834Z" fill="black"/>
</g>
<defs>
<clipPath id="clip0_6380_269074">
<rect width="151.923" height="20" fill="white"/>
</clipPath>
</defs>
</svg>
