<svg width="24" height="24" viewBox="0 0 24 24" fill="none" xmlns="http://www.w3.org/2000/svg">
<path d="M13.1 7.5C13.1 4.464 10.394 2 7.05 2C3.706 2 1 4.464 1 7.5H3.2L4.3 6.4L5.4 7.5H9.8" stroke="white" stroke-width="1.5" stroke-linecap="round" stroke-linejoin="round"/>
<path d="M13.0999 6.55298C14.2137 5.72946 15.5646 5.28945 16.9499 5.29898C20.2939 5.29898 22.9999 7.76298 22.9999 10.799H19.6999L18.5999 9.69898L17.4999 10.799H14.1999" stroke="white" stroke-width="1.5" stroke-linecap="round" stroke-linejoin="round"/>
<path d="M5.27895 9.38268C2.91395 11.7477 2.74895 15.3997 4.89395 17.5557L9.55795 12.8807L10.328 12.1107L11.109 11.3297L13.441 8.99768C11.296 6.84168 7.64395 7.01768 5.27895 9.38268Z" stroke="white" stroke-width="1.5" stroke-linecap="round" stroke-linejoin="round"/>
<path d="M10.9 15.75C11.45 18.5 10.713 20.7 9.80005 22.9H14.2C16.4 16.85 13.65 9.7 13.1 7.5" stroke="white" stroke-width="1.5" stroke-linecap="round" stroke-linejoin="round"/>
</svg>
