<svg width="25" height="28" viewBox="0 0 25 28" fill="none" xmlns="http://www.w3.org/2000/svg">
<circle cx="21.5" cy="3" r="2" fill="#00FFFF" stroke="#00FFFF" stroke-width="2"/>
<path d="M19.5 25V23C19.5 21.9391 19.0786 20.9217 18.3284 20.1716C17.5783 19.4214 16.5609 19 15.5 19H9.5C8.43913 19 7.42172 19.4214 6.67157 20.1716C5.92143 20.9217 5.5 21.9391 5.5 23V25" stroke="white" stroke-width="2" stroke-linecap="round" stroke-linejoin="round"/>
<path d="M12.5 15C14.7091 15 16.5 13.2091 16.5 11C16.5 8.79086 14.7091 7 12.5 7C10.2909 7 8.5 8.79086 8.5 11C8.5 13.2091 10.2909 15 12.5 15Z" stroke="white" stroke-width="2" stroke-linecap="round" stroke-linejoin="round"/>
</svg>
