<svg width="496" height="521" viewBox="0 0 496 521" fill="none" xmlns="http://www.w3.org/2000/svg">
<path d="M252.315 223.008L260.509 178.301C275.478 177.748 289.933 174.948 304.172 171.591C309.129 170.422 314.059 169.186 318.975 167.953C328.169 165.647 337.315 163.354 346.502 161.535L348.087 197.474L348.335 197.491L355.212 159.945C372.757 157.117 390.526 156.582 409.055 161.414C427.563 166.241 446.838 176.425 467.408 195.041L82.2735 300.469L80.0673 292.278L107.417 284.794L107.46 284.782L107.486 284.746C108.671 283.102 110.028 281.263 111.516 279.315L111.517 279.314C123.836 262.83 144.489 237.434 169.072 216.221C193.624 195.035 222.076 178.042 250.049 178.24L252.067 222.991L252.315 223.008Z" fill="url(#paint0_linear_6040_64371)" stroke="#121212" stroke-width="0.25"/>
<path d="M363.323 254.011L379.995 285.828C371.148 288.949 362.097 291.638 353 294.341C348.149 295.782 343.285 297.228 338.431 298.744C324.463 303.109 310.591 308.065 297.405 315.218L267.894 280.829L267.689 280.968L288.406 320.596C264.38 335.033 231.309 334.883 199.494 329.127C167.641 323.364 137.078 311.986 118.177 304.046L118.176 304.045C115.917 303.125 113.817 302.234 111.971 301.417L111.931 301.399L111.888 301.411L84.539 308.895L82.3328 300.705L467.471 195.276C459.07 221.821 447.556 240.433 434.014 254.034C420.456 267.651 404.861 276.251 388.308 282.759L363.528 253.871L363.323 254.011Z" fill="url(#paint1_linear_6040_64371)" stroke="#121212" stroke-width="0.25"/>
<path d="M456.982 197.938L23.5686 322.785L21.0665 314.041L456.982 197.938Z" fill="#121212" stroke="#121212" stroke-width="0.25"/>
<mask id="path-4-inside-1_6040_64371" fill="white">
<path fill-rule="evenodd" clip-rule="evenodd" d="M20.9121 313.953L23.4837 322.94L83.5349 305.642L84.4528 309.049L111.923 301.532C113.769 302.349 115.87 303.241 118.131 304.161C155.939 320.045 240.424 349.687 288.573 320.643L267.801 280.91L297.377 315.376C315.154 305.717 334.187 300.062 353.033 294.462C362.179 291.745 371.281 289.04 380.175 285.898L363.435 253.953L388.273 282.908C421.458 269.878 450.835 248.454 467.659 195.102L467.661 195.101L467.659 195.099L467.663 195.089L467.656 195.096L467.656 195.096C467.628 195.071 467.599 195.045 467.571 195.019L468.932 194.627L467.545 194.996C426.303 157.645 390.24 154.156 355.106 159.836L348.213 197.468L346.622 161.384C337.384 163.208 328.185 165.514 318.941 167.832C299.867 172.615 280.602 177.446 260.405 178.179L252.193 222.985L250.169 178.116C194.052 177.62 136.062 246.264 111.417 279.239C109.928 281.187 108.571 283.028 107.385 284.673L79.9152 292.19L81.4353 297.834L20.9121 313.953Z"/>
</mask>
<path fill-rule="evenodd" clip-rule="evenodd" d="M20.9121 313.953L23.4837 322.94L83.5349 305.642L84.4528 309.049L111.923 301.532C113.769 302.349 115.87 303.241 118.131 304.161C155.939 320.045 240.424 349.687 288.573 320.643L267.801 280.91L297.377 315.376C315.154 305.717 334.187 300.062 353.033 294.462C362.179 291.745 371.281 289.04 380.175 285.898L363.435 253.953L388.273 282.908C421.458 269.878 450.835 248.454 467.659 195.102L467.661 195.101L467.659 195.099L467.663 195.089L467.656 195.096L467.656 195.096C467.628 195.071 467.599 195.045 467.571 195.019L468.932 194.627L467.545 194.996C426.303 157.645 390.24 154.156 355.106 159.836L348.213 197.468L346.622 161.384C337.384 163.208 328.185 165.514 318.941 167.832C299.867 172.615 280.602 177.446 260.405 178.179L252.193 222.985L250.169 178.116C194.052 177.62 136.062 246.264 111.417 279.239C109.928 281.187 108.571 283.028 107.385 284.673L79.9152 292.19L81.4353 297.834L20.9121 313.953Z" fill="url(#paint2_linear_6040_64371)"/>
<path d="M23.4837 322.94L23.2434 323.009L23.3123 323.249L23.5529 323.18L23.4837 322.94ZM20.9121 313.953L20.8478 313.712L20.6017 313.777L20.6718 314.022L20.9121 313.953ZM83.5349 305.642L83.7763 305.577L83.7102 305.331L83.4657 305.402L83.5349 305.642ZM84.4528 309.049L84.2114 309.114L84.2767 309.357L84.5188 309.29L84.4528 309.049ZM111.923 301.532L112.024 301.303L111.942 301.267L111.857 301.291L111.923 301.532ZM118.131 304.161L118.228 303.931L118.225 303.93L118.131 304.161ZM288.573 320.643L288.703 320.857L288.904 320.735L288.795 320.527L288.573 320.643ZM267.801 280.91L267.991 280.747L267.58 281.026L267.801 280.91ZM297.377 315.376L297.188 315.539L297.319 315.692L297.497 315.596L297.377 315.376ZM353.033 294.462L352.962 294.223L352.962 294.223L353.033 294.462ZM380.175 285.898L380.258 286.133L380.53 286.037L380.396 285.781L380.175 285.898ZM363.435 253.953L363.625 253.79L363.214 254.069L363.435 253.953ZM388.273 282.908L388.083 283.071L388.199 283.206L388.364 283.141L388.273 282.908ZM467.659 195.102L467.592 194.861L467.461 194.897L467.42 195.027L467.659 195.102ZM467.661 195.101L467.728 195.342L468.165 195.221L467.829 194.916L467.661 195.101ZM467.659 195.099L467.421 195.024L467.373 195.177L467.492 195.285L467.659 195.099ZM467.663 195.089L467.901 195.165L467.475 194.924L467.663 195.089ZM467.656 195.096L467.719 195.338L467.794 195.319L467.844 195.261L467.656 195.096ZM467.656 195.096L467.488 195.282L467.588 195.372L467.719 195.339L467.656 195.096ZM467.571 195.019L467.502 194.779L467.07 194.903L467.403 195.204L467.571 195.019ZM468.932 194.627L469.002 194.867L468.868 194.385L468.932 194.627ZM467.545 194.996L467.378 195.181L467.478 195.273L467.61 195.238L467.545 194.996ZM355.106 159.836L355.066 159.589L354.892 159.617L354.86 159.791L355.106 159.836ZM348.213 197.468L347.963 197.479L348.459 197.514L348.213 197.468ZM346.622 161.384L346.871 161.373L346.859 161.083L346.573 161.139L346.622 161.384ZM318.941 167.832L319.002 168.075L319.002 168.075L318.941 167.832ZM260.405 178.179L260.396 177.93L260.196 177.937L260.159 178.134L260.405 178.179ZM252.193 222.985L251.943 222.996L252.439 223.03L252.193 222.985ZM250.169 178.116L250.419 178.104L250.408 177.868L250.171 177.866L250.169 178.116ZM111.417 279.239L111.616 279.391L111.618 279.389L111.417 279.239ZM107.385 284.673L107.451 284.914L107.536 284.891L107.588 284.819L107.385 284.673ZM79.9152 292.19L79.8492 291.949L79.609 292.015L79.6738 292.255L79.9152 292.19ZM81.4353 297.834L81.4996 298.075L81.7419 298.011L81.6766 297.769L81.4353 297.834ZM23.7241 322.871L21.1525 313.885L20.6718 314.022L23.2434 323.009L23.7241 322.871ZM83.4657 305.402L23.4145 322.7L23.5529 323.18L83.6041 305.882L83.4657 305.402ZM83.2935 305.707L84.2114 309.114L84.6942 308.984L83.7763 305.577L83.2935 305.707ZM84.5188 309.29L111.989 301.773L111.857 301.291L84.3868 308.808L84.5188 309.29ZM111.822 301.76C113.67 302.578 115.774 303.471 118.037 304.393L118.225 303.93C115.966 303.01 113.868 302.119 112.024 301.303L111.822 301.76ZM118.034 304.392C136.946 312.337 167.538 323.726 199.429 329.496C231.31 335.264 264.546 335.428 288.703 320.857L288.444 320.429C264.451 334.902 231.37 334.767 199.519 329.004C167.678 323.243 137.124 311.87 118.228 303.931L118.034 304.392ZM288.795 320.527L268.023 280.794L267.58 281.026L288.352 320.758L288.795 320.527ZM267.612 281.073L297.188 315.539L297.567 315.213L267.991 280.747L267.612 281.073ZM297.497 315.596C315.247 305.951 334.254 300.303 353.104 294.702L352.962 294.223C334.119 299.821 315.062 305.483 297.258 315.156L297.497 315.596ZM353.104 294.702C362.249 291.985 371.357 289.278 380.258 286.133L380.091 285.662C371.205 288.802 362.109 291.505 352.962 294.223L353.104 294.702ZM380.396 285.781L363.657 253.837L363.214 254.069L379.953 286.014L380.396 285.781ZM363.245 254.116L388.083 283.071L388.463 282.745L363.625 253.79L363.245 254.116ZM388.364 283.141C404.977 276.617 420.651 267.988 434.278 254.302C447.906 240.616 459.475 221.885 467.897 195.177L467.42 195.027C459.019 221.671 447.487 240.328 433.924 253.949C420.361 267.571 404.753 276.168 388.182 282.675L388.364 283.141ZM467.726 195.343L467.728 195.342L467.594 194.86L467.592 194.861L467.726 195.343ZM467.829 194.916L467.827 194.914L467.492 195.285L467.493 195.286L467.829 194.916ZM467.898 195.175L467.901 195.165L467.424 195.014L467.421 195.024L467.898 195.175ZM467.475 194.924L467.469 194.931L467.844 195.261L467.85 195.254L467.475 194.924ZM467.594 194.854L467.594 194.854L467.719 195.339L467.719 195.338L467.594 194.854ZM467.824 194.911C467.796 194.885 467.767 194.86 467.739 194.834L467.403 195.204C467.431 195.23 467.46 195.256 467.488 195.282L467.824 194.911ZM468.863 194.387L467.502 194.779L467.64 195.259L469.002 194.867L468.863 194.387ZM467.61 195.238L468.997 194.868L468.868 194.385L467.481 194.755L467.61 195.238ZM467.713 194.811C447.067 176.113 427.706 165.88 409.098 161.037C390.491 156.195 372.655 156.745 355.066 159.589L355.146 160.082C372.691 157.246 390.453 156.702 408.972 161.521C427.49 166.341 446.782 176.529 467.378 195.181L467.713 194.811ZM354.86 159.791L347.967 197.423L348.459 197.514L355.352 159.881L354.86 159.791ZM348.463 197.457L346.871 161.373L346.372 161.395L347.963 197.479L348.463 197.457ZM346.573 161.139C337.328 162.964 328.123 165.272 318.88 167.59L319.002 168.075C328.247 165.757 337.439 163.452 346.67 161.629L346.573 161.139ZM318.88 167.59C299.802 172.374 280.562 177.198 260.396 177.93L260.414 178.429C280.641 177.695 299.932 172.857 319.002 168.075L318.88 167.59ZM260.159 178.134L251.947 222.94L252.439 223.03L260.651 178.225L260.159 178.134ZM252.443 222.974L250.419 178.104L249.919 178.127L251.943 222.996L252.443 222.974ZM250.171 177.866C222.018 177.617 193.431 194.707 168.828 215.937C144.215 237.175 123.544 262.596 111.217 279.09L111.618 279.389C123.935 262.908 144.581 237.519 169.154 216.315C193.736 195.104 222.203 178.119 250.167 178.366L250.171 177.866ZM111.219 279.087C109.728 281.038 108.369 282.88 107.182 284.527L107.588 284.819C108.772 283.176 110.129 281.337 111.616 279.391L111.219 279.087ZM107.319 284.432L79.8492 291.949L79.9812 292.432L107.451 284.914L107.319 284.432ZM79.6738 292.255L81.1939 297.899L81.6766 297.769L80.1566 292.125L79.6738 292.255ZM20.9765 314.195L81.4996 298.075L81.3709 297.592L20.8478 313.712L20.9765 314.195Z" fill="#121212" mask="url(#path-4-inside-1_6040_64371)"/>
<defs>
<linearGradient id="paint0_linear_6040_64371" x1="296.902" y1="45.1064" x2="467.678" y2="195.081" gradientUnits="userSpaceOnUse">
<stop stop-color="#CC004E"/>
<stop offset="0.142857" stop-color="#D33691"/>
<stop offset="0.285714" stop-color="#C164CE"/>
<stop offset="0.428571" stop-color="#938EFE"/>
<stop offset="0.571429" stop-color="#40B1FF"/>
<stop offset="0.714286" stop-color="#00D0FF"/>
<stop offset="0.857143" stop-color="#00E9FF"/>
<stop offset="1" stop-color="#00FFFF"/>
</linearGradient>
<linearGradient id="paint1_linear_6040_64371" x1="302.348" y1="49.9121" x2="478.148" y2="204.299" gradientUnits="userSpaceOnUse">
<stop stop-color="#CC004E"/>
<stop offset="0.142857" stop-color="#D33691"/>
<stop offset="0.285714" stop-color="#C164CE"/>
<stop offset="0.428571" stop-color="#938EFE"/>
<stop offset="0.571429" stop-color="#40B1FF"/>
<stop offset="0.714286" stop-color="#00D0FF"/>
<stop offset="0.857143" stop-color="#00E9FF"/>
<stop offset="1" stop-color="#00FFFF"/>
</linearGradient>
<linearGradient id="paint2_linear_6040_64371" x1="278.874" y1="169.084" x2="282.962" y2="328.144" gradientUnits="userSpaceOnUse">
<stop stop-color="#121212"/>
<stop offset="0.5" stop-color="#121212" stop-opacity="0"/>
<stop offset="1" stop-color="#121212"/>
</linearGradient>
</defs>
</svg>
