<svg width="62" height="61" viewBox="0 0 62 61" fill="none" xmlns="http://www.w3.org/2000/svg">
<g filter="url(#filter0_d_263_15659)">
<g filter="url(#filter1_d_263_15659)">
<g style="mix-blend-mode:luminosity">
<path d="M31 52.8696C45.5996 52.8696 57.4348 41.0343 57.4348 26.4348C57.4348 11.8353 45.5996 0 31 0C16.4005 0 4.56525 11.8353 4.56525 26.4348C4.56525 41.0343 16.4005 52.8696 31 52.8696Z" fill="#7F7F7F" fill-opacity="0.5"/>
</g>
<g style="mix-blend-mode:overlay">
<path d="M31 52.8696C45.5996 52.8696 57.4348 41.0343 57.4348 26.4348C57.4348 11.8353 45.5996 0 31 0C16.4005 0 4.56525 11.8353 4.56525 26.4348C4.56525 41.0343 16.4005 52.8696 31 52.8696Z" fill="#C2C2C2"/>
</g>
</g>
<path fill-rule="evenodd" clip-rule="evenodd" d="M47.1963 0.418441C47.1963 0.418413 47.1963 0.41847 47.1963 0.418441C39.9728 0.302758 35.9108 2.97115 32.9725 6.53214L35.5195 10.7863L32.2788 7.40852C31.5351 8.37613 30.8365 9.38742 30.1346 10.4036C28.6863 12.5006 27.2233 14.6186 25.3193 16.4171L28.3512 21.4826L24.317 17.2863C18.81 22.0372 19.0333 33.6808 19.4533 38.9995C19.475 39.3166 19.5002 39.612 19.5254 39.8735L17.4932 42.9547L18.4346 43.5809L19.3766 44.2083L21.4088 41.127C21.6584 41.0486 21.9393 40.9558 22.2381 40.8522C27.2783 39.1656 38.0403 34.8271 40.2452 27.8811L34.8246 25.7884L40.6522 26.6154C41.5572 24.1544 42.9271 21.9762 44.2833 19.8191C44.9416 18.7725 45.5967 17.7306 46.194 16.6641L41.832 14.9848L46.7269 15.6804C48.8443 11.5733 50.1214 7.05336 47.1963 0.418441Z" fill="url(#paint0_linear_263_15659)"/>
<mask id="mask0_263_15659" style="mask-type:luminance" maskUnits="userSpaceOnUse" x="17" y="0" width="32" height="45">
<path fill-rule="evenodd" clip-rule="evenodd" d="M47.1963 0.418441C47.1963 0.418413 47.1963 0.41847 47.1963 0.418441C39.9728 0.302758 35.9108 2.97115 32.9725 6.53214L35.5195 10.7863L32.2788 7.40852C31.5351 8.37613 30.8365 9.38742 30.1346 10.4036C28.6863 12.5006 27.2233 14.6186 25.3193 16.4171L28.3512 21.4826L24.317 17.2863C18.81 22.0372 19.0333 33.6808 19.4533 38.9995C19.475 39.3166 19.5002 39.612 19.5254 39.8735L17.4932 42.9547L18.4346 43.5809L19.3766 44.2083L21.4088 41.127C21.6584 41.0486 21.9393 40.9558 22.2381 40.8522C27.2783 39.1656 38.0403 34.8271 40.2452 27.8811L34.8246 25.7884L40.6522 26.6154C41.5572 24.1544 42.9271 21.9762 44.2833 19.8191C44.9416 18.7725 45.5967 17.7306 46.194 16.6641L41.832 14.9848L46.7269 15.6804C48.8443 11.5733 50.1214 7.05336 47.1963 0.418441Z" fill="white"/>
</mask>
<g mask="url(#mask0_263_15659)">
<path d="M47.1964 0.418377L47.7723 0.808678C47.9156 0.597233 47.9315 0.324251 47.8136 0.0975922C47.6959 -0.129066 47.4634 -0.272938 47.208 -0.277179L47.1964 0.418377ZM47.1964 0.418377L46.6206 0.0281425C46.4862 0.22642 46.4632 0.479892 46.5598 0.699069L47.1964 0.418377ZM47.1964 0.418377L46.567 0.714856C46.68 0.954757 46.9196 1.10953 47.1848 1.11393L47.1964 0.418377ZM47.1964 0.418377L47.8256 0.121814C47.7189 -0.104765 47.4985 -0.25647 47.2488 -0.275376C46.999 -0.294282 46.7585 -0.17747 46.6188 0.0304592L47.1964 0.418377ZM47.1964 0.418377L47.1848 1.11393C47.4203 1.11771 47.6424 1.00189 47.7737 0.806207L47.1964 0.418377ZM32.9724 6.53214L32.436 6.08939C32.2486 6.31646 32.2243 6.63691 32.3756 6.88949L32.9724 6.53214ZM35.5195 10.7863L35.0175 11.2679C35.2627 11.5233 35.6603 11.554 35.9416 11.3392C36.223 11.1244 36.2982 10.7326 36.1164 10.429L35.5195 10.7863ZM32.2787 7.40853L32.7806 6.92691C32.6403 6.78062 32.4431 6.70283 32.2406 6.71392C32.0382 6.72501 31.8506 6.82386 31.7271 6.98462L32.2787 7.40853ZM25.3193 16.4171L24.8415 15.9114C24.6043 16.1355 24.5548 16.4943 24.7223 16.7744L25.3193 16.4171ZM28.3512 21.4826L27.8498 21.9647C28.095 22.2197 28.4926 22.2502 28.7736 22.0354C29.0548 21.8205 29.1298 21.4289 28.9481 21.1253L28.3512 21.4826ZM24.317 17.2863L24.8184 16.8042C24.5623 16.5378 24.1425 16.5181 23.8626 16.7595L24.317 17.2863ZM19.4533 38.9995L20.1474 38.9522L20.1468 38.9447L19.4533 38.9995ZM19.5254 39.8735L20.1061 40.2566C20.1936 40.1237 20.233 39.9651 20.2178 39.8068L19.5254 39.8735ZM17.4932 42.9547L16.9125 42.5717C16.7016 42.8916 16.7889 43.3218 17.1078 43.5339L17.4932 42.9547ZM18.4346 43.581L19.0131 43.9673C19.1156 43.8137 19.1529 43.6256 19.1167 43.4445C19.0804 43.2635 18.9737 43.1041 18.8198 43.0018L18.4346 43.581ZM18.4346 43.581L17.8558 43.195C17.7532 43.3486 17.716 43.5367 17.7521 43.7179C17.7884 43.899 17.8952 44.0583 18.049 44.1606L18.4346 43.581ZM19.3766 44.2083L18.9912 44.7873C19.1452 44.8899 19.3338 44.9268 19.5151 44.8899C19.6963 44.8532 19.8555 44.7456 19.9574 44.5912L19.3766 44.2083ZM21.4088 41.127L21.2003 40.4633C21.0476 40.5112 20.9161 40.6104 20.828 40.7439L21.4088 41.127ZM22.2381 40.8522L22.0173 40.1924L22.0101 40.1949L22.2381 40.8522ZM40.2452 27.8811L40.9083 28.0916C41.0196 27.7411 40.8389 27.3646 40.4958 27.2321L40.2452 27.8811ZM34.8246 25.7884L34.9224 25.0996C34.5722 25.0499 34.2405 25.2708 34.1514 25.6131C34.0623 25.9554 34.2441 26.31 34.5741 26.4373L34.8246 25.7884ZM40.6522 26.6154L40.5544 27.3041C40.8791 27.3501 41.1919 27.1633 41.305 26.8555L40.6522 26.6154ZM46.194 16.6641L46.8009 17.004C46.8995 16.8278 46.9168 16.6176 46.8483 16.4278C46.7798 16.2381 46.6323 16.0874 46.4439 16.0149L46.194 16.6641ZM41.832 14.9848L41.9299 14.2961C41.5796 14.2463 41.2478 14.4673 41.1587 14.8097C41.0697 15.1521 41.252 15.5069 41.5821 15.634L41.832 14.9848ZM46.7269 15.6804L46.6291 16.3691C46.9222 16.4107 47.2095 16.2623 47.3453 15.9992L46.7269 15.6804ZM47.8256 0.121814C47.8293 0.129729 47.8323 0.136306 47.8341 0.140357C47.8356 0.144029 47.837 0.147187 47.8367 0.146661C47.8366 0.146405 47.8363 0.145581 47.836 0.145062C47.8356 0.144042 47.8351 0.142415 47.8341 0.140357C47.8323 0.136306 47.8293 0.129729 47.8256 0.121814L46.567 0.714856C46.5633 0.706942 46.5603 0.70036 46.5587 0.69631C46.557 0.692638 46.5558 0.689481 46.5559 0.690006C46.5559 0.689997 46.5559 0.69001 46.5559 0.690006C46.556 0.690262 46.5563 0.691087 46.5566 0.691606C46.557 0.692625 46.5577 0.694252 46.5587 0.69631C46.5603 0.70036 46.5633 0.706942 46.567 0.714856L47.8256 0.121814ZM33.5091 6.97488C34.9307 5.25193 36.6049 3.76762 38.7786 2.72359C40.9523 1.67963 43.6634 1.05754 47.1848 1.11393L47.208 -0.277179C43.5059 -0.336468 40.5741 0.317825 38.1763 1.46942C35.7787 2.62095 33.9525 4.25136 32.436 6.08939L33.5091 6.97488ZM36.1164 10.429L33.5693 6.17479L32.3756 6.88949L34.9226 11.1436L36.1164 10.429ZM31.7768 7.89015L35.0175 11.2679L36.0215 10.3047L32.7806 6.92691L31.7768 7.89015ZM30.707 10.799C31.4107 9.78025 32.0991 8.78366 32.8303 7.83244L31.7271 6.98462C30.9709 7.96861 30.2623 8.99459 29.5622 10.0083L30.707 10.799ZM25.7969 16.9229C27.7627 15.066 29.265 12.8866 30.707 10.799L29.5622 10.0083C28.1073 12.1147 26.6839 14.1711 24.8415 15.9114L25.7969 16.9229ZM28.9481 21.1253L25.9162 16.0598L24.7223 16.7744L27.7544 21.8399L28.9481 21.1253ZM23.8154 17.7684L27.8498 21.9647L28.8528 21.0005L24.8184 16.8042L23.8154 17.7684ZM20.1468 38.9447C19.9386 36.3079 19.7814 32.124 20.3515 28.0259C20.9261 23.8955 22.2179 20.0157 24.7714 17.813L23.8626 16.7595C20.9089 19.3076 19.559 23.6252 18.9734 27.8342C18.3835 32.0751 18.548 36.3725 18.7599 39.0543L20.1468 38.9447ZM20.2178 39.8068C20.1932 39.5508 20.1684 39.2619 20.1474 38.9522L18.7593 39.0468C18.7814 39.3711 18.8072 39.6731 18.8329 39.9402L20.2178 39.8068ZM18.0739 43.3378L20.1061 40.2566L18.9446 39.4905L16.9125 42.5717L18.0739 43.3378ZM18.8198 43.0018L17.8785 42.3755L17.1078 43.5339L18.049 44.1606L18.8198 43.0018ZM18.049 44.1606L18.9912 44.7873L19.7619 43.6291L18.8198 43.0018L18.049 44.1606ZM19.9574 44.5912L21.9894 41.51L20.828 40.7439L18.7959 43.8253L19.9574 44.5912ZM21.617 41.7908C21.8739 41.7101 22.1615 41.615 22.4662 41.5094L22.0101 40.1949C21.7171 40.2965 21.4428 40.3872 21.2003 40.4633L21.617 41.7908ZM22.4589 41.5118C25.0006 40.6613 29.0051 39.1362 32.6634 36.935C36.2947 34.7502 39.7258 31.8164 40.9083 28.0916L39.5823 27.6707C38.5596 30.8918 35.5073 33.6003 31.9462 35.7429C28.4123 37.8691 24.5157 39.3565 22.0173 40.1924L22.4589 41.5118ZM40.4958 27.2321L35.0751 25.1393L34.5741 26.4373L39.9946 28.5301L40.4958 27.2321ZM34.7269 26.4771L40.5544 27.3041L40.7498 25.9266L34.9224 25.0996L34.7269 26.4771ZM41.305 26.8555C42.1809 24.4742 43.5099 22.356 44.8723 20.1895L43.6945 19.4489C42.3441 21.5963 40.9336 23.8349 39.9992 26.3752L41.305 26.8555ZM44.8723 20.1895C45.5288 19.1453 46.1936 18.0886 46.8009 17.004L45.587 16.3242C44.9999 17.3727 44.3544 18.3995 43.6945 19.4489L44.8723 20.1895ZM46.4439 16.0149L42.082 14.3356L41.5821 15.634L45.9441 17.3133L46.4439 16.0149ZM41.7342 15.6735L46.6291 16.3691L46.8248 14.9916L41.9299 14.2961L41.7342 15.6735ZM47.3453 15.9992C48.4248 13.905 49.3161 11.6569 49.5455 9.05853C49.7755 6.4538 49.3363 3.54782 47.833 0.137818L46.5598 0.699069C47.9816 3.92399 48.3663 6.59543 48.1596 8.93616C47.9523 11.2833 47.1464 13.3487 46.1086 15.3615L47.3453 15.9992Z" fill="black"/>
</g>
<path d="M14.4002 50.6322L13.3872 49.9679L47.2593 0.337128L14.4002 50.6322Z" fill="black"/>
</g>
<defs>
<filter id="filter0_d_263_15659" x="0.565247" y="0" width="60.8696" height="60.8696" filterUnits="userSpaceOnUse" color-interpolation-filters="sRGB">
<feFlood flood-opacity="0" result="BackgroundImageFix"/>
<feColorMatrix in="SourceAlpha" type="matrix" values="0 0 0 0 0 0 0 0 0 0 0 0 0 0 0 0 0 0 127 0" result="hardAlpha"/>
<feOffset dy="4"/>
<feGaussianBlur stdDeviation="2"/>
<feComposite in2="hardAlpha" operator="out"/>
<feColorMatrix type="matrix" values="0 0 0 0 0 0 0 0 0 0 0 0 0 0 0 0 0 0 0.25 0"/>
<feBlend mode="normal" in2="BackgroundImageFix" result="effect1_dropShadow_263_15659"/>
<feBlend mode="normal" in="SourceGraphic" in2="effect1_dropShadow_263_15659" result="shape"/>
</filter>
<filter id="filter1_d_263_15659" x="0.565247" y="0" width="60.8696" height="60.8696" filterUnits="userSpaceOnUse" color-interpolation-filters="sRGB">
<feFlood flood-opacity="0" result="BackgroundImageFix"/>
<feColorMatrix in="SourceAlpha" type="matrix" values="0 0 0 0 0 0 0 0 0 0 0 0 0 0 0 0 0 0 127 0" result="hardAlpha"/>
<feOffset dy="4"/>
<feGaussianBlur stdDeviation="2"/>
<feComposite in2="hardAlpha" operator="out"/>
<feColorMatrix type="matrix" values="0 0 0 0 0 0 0 0 0 0 0 0 0 0 0 0 0 0 0.25 0"/>
<feBlend mode="normal" in2="BackgroundImageFix" result="effect1_dropShadow_263_15659"/>
<feBlend mode="normal" in="SourceGraphic" in2="effect1_dropShadow_263_15659" result="shape"/>
</filter>
<linearGradient id="paint0_linear_263_15659" x1="17.4932" y1="0.41475" x2="48.9073" y2="0.41475" gradientUnits="userSpaceOnUse">
<stop stop-color="#00CCCC"/>
<stop offset="0.142857" stop-color="#00C7E8"/>
<stop offset="0.285714" stop-color="#00BEFD"/>
<stop offset="0.428571" stop-color="#4CB1FF"/>
<stop offset="0.571429" stop-color="#93A0FF"/>
<stop offset="0.714286" stop-color="#C88BEC"/>
<stop offset="0.857143" stop-color="#ED76C7"/>
<stop offset="1" stop-color="#FF6699"/>
</linearGradient>
</defs>
</svg>
